<?xml version="1.0" encoding="utf-8"?>
<!-- Generator: Adobe Illustrator 18.0.0, SVG Export Plug-In . SVG Version: 6.00 Build 0)  -->
<!DOCTYPE svg PUBLIC "-//W3C//DTD SVG 1.0//EN" "http://www.w3.org/TR/2001/REC-SVG-20010904/DTD/svg10.dtd">
<svg version="1.0" id="Layer_1" xmlns="http://www.w3.org/2000/svg" xmlns:xlink="http://www.w3.org/1999/xlink" x="0px" y="0px"
	 viewBox="0 0 329.2 397" enable-background="new 0 0 329.2 397" xml:space="preserve">
<g>
	<rect x="0" y="228" fill="#5E2D17" width="329.1" height="169"/>
	<g>
		<polygon opacity="0.2" fill="#FFFFFF" points="311.4,283.1 329.2,283.1 329.2,397 0,397 18,378.1 104.8,378.1 112,397 
			119.1,378.1 210,378.1 217.1,397 224.3,378.1 311.4,378.1 		"/>
	</g>
	<polygon opacity="0.3" fill="#FFFFFF" points="210,378.1 210,289.3 217.1,289.3 217.1,397 	"/>
	<polygon opacity="0.3" fill="#FFFFFF" points="104.8,378.1 104.8,289.3 112,289.3 112,397 	"/>
	<g opacity="0.2">
		<polygon fill="#12100B" points="217.1,397 217.1,289.3 224.3,289.3 224.3,378.1 		"/>
		<polygon fill="#12100B" points="112,397 112,289.3 119.1,289.3 119.1,378.1 		"/>
		<polygon fill="#12100B" points="0,397 0,280.1 18,280.1 18,378.1 		"/>
	</g>
</g>
<g>
	<g>
		<g>
			<polygon fill="#40AAA2" points="17.8,306.9 0,292.7 0,0 329.2,0 329.2,294 311.4,306.9 281.3,301.1 251.2,320.8 239.4,306.9 
				193.4,314.9 169,299.3 151.8,311.2 111.1,296.4 87.4,303 49.6,314.2 			"/>
		</g>
	</g>
</g>
<path fill="#FDC300" d="M182.9,44.5c-0.1-0.1-0.2-0.2-0.3-0.3C182.6,44.3,182.7,44.4,182.9,44.5z"/>
<polygon opacity="0.2" fill="#FFFFFF" points="444.5,858.8 462.3,884.4 133.1,884.4 150.9,858.8 "/>
<polygon opacity="0.2" fill="#FFFFFF" points="329.2,0 311.4,0 311.4,306.9 329.2,294 "/>
<g>
	<rect x="43.1" y="45" fill="none" width="277.2" height="89"/>
	<text transform="matrix(1 0 0 1 43.0647 98.3662)" fill="#14443F" font-family="'Phosphate-Inline'" font-size="80">Sorry</text>
</g>
<rect x="37.3" y="143" fill="none" width="245.8" height="219"/>
<text transform="matrix(1 0 0 1 56.469 156.6797)"><tspan x="0" y="0" fill="#13433E" font-family="'OpenSans'" font-size="18">I couldn’t quite find what </tspan><tspan x="28.2" y="27" fill="#13433E" font-family="'OpenSans'" font-size="18">you’re looking for.</tspan><tspan x="-16.2" y="81" fill="#13433E" font-family="'OpenSans'" font-size="18">How about something sweet </tspan><tspan x="34.4" y="108" fill="#13433E" font-family="'OpenSans-Extrabold'" font-size="18">sweet instead</tspan><tspan x="165.3" y="108" fill="#13433E" font-family="'OpenSans'" font-size="18">?</tspan></text>
<line fill="none" stroke="#14443F" stroke-miterlimit="10" x1="121" y1="122" x2="180.8" y2="122"/>
<line fill="none" stroke="#14443F" stroke-miterlimit="10" x1="121" y1="204" x2="180.8" y2="204"/>
</svg>
